<svg id="Layer_1" data-name="Layer 1" xmlns="http://www.w3.org/2000/svg" viewBox="0 0 200.17 200"><defs><style>.cls-1{fill:#df146e;}.cls-2{fill:#fff;}</style></defs><title>bkash bank</title><rect class="cls-1" width="200" height="200" rx="9.18"/><path class="cls-2" d="M79.3,96.26,32.38,36l.23-.46L94,43C89.06,60.73,84.25,78.26,79.3,96.26Z"/><path class="cls-2" d="M81.75,96.73c4.91-17.86,9.77-35.5,14.76-53.64l44.77,62.49-.24.47Z"/><path class="cls-2" d="M81.88,99.33l56.75,9.08.11.56-49,24.58C87.09,122.14,84.54,111,81.88,99.33Z"/><path class="cls-2" d="M60.66,164.2c6.1-21.51,12.2-43,18.43-65a11.55,11.55,0,0,1,.65,1.48q4.38,19.69,8.75,39.4a2.52,2.52,0,0,1-1,2.93c-8.42,6.79-16.78,13.66-25.16,20.5-.4.32-.82.61-1.23.91Z"/><path class="cls-2" d="M126.07,80.65l29.43-5.31L144.29,106C138.13,97.41,132.25,89.24,126.07,80.65Z"/><path class="cls-2" d="M97.52,132.27l44-22.42.35.3c-.55,1.68-1.06,3.37-1.69,5a1.85,1.85,0,0,1-1,.81q-20.5,8.28-41,16.52a1.86,1.86,0,0,1-.34.06Z"/><path class="cls-2" d="M169.46,88.15H153.14c1.54-4.21,3-8.24,4.37-11.92l12.13,11.4Z"/><path class="cls-2" d="M55.53,70.27l-25-23.67.18-.46c2.11,0,4.22,0,6.33,0,.33,0,.71.39.94.69Q46.8,58.14,55.57,69.44a2.77,2.77,0,0,1,.26.58Z"/></svg>