<svg xmlns="http://www.w3.org/2000/svg" width="26.197" height="29.475" viewBox="0 0 26.197 29.475">
  <path id="copy-02" d="M6.548,6.549V8.186H4.091a2.458,2.458,0,0,0-2.457,2.457V25.376a2.458,2.458,0,0,0,2.457,2.457H15.55a2.458,2.458,0,0,0,2.457-2.457V22.919h1.637v2.457A4.1,4.1,0,0,1,15.55,29.47H4.094A4.1,4.1,0,0,1,0,25.376V10.639A4.1,4.1,0,0,1,4.094,6.545H6.548Zm13.1-4.911H10.642A2.458,2.458,0,0,0,8.185,4.095V18.828a2.458,2.458,0,0,0,2.457,2.457H22.1a2.458,2.458,0,0,0,2.457-2.457V6.549H20.464a.822.822,0,0,1-.82-.82V1.637ZM26.2,5.776V18.828A4.1,4.1,0,0,1,22.1,22.922H10.642a4.1,4.1,0,0,1-4.094-4.094V4.091A4.1,4.1,0,0,1,10.642,0h9.775a.788.788,0,0,1,.623.241l4.911,4.911A.8.8,0,0,1,26.2,5.776Zm-4.911-.864H23.4L21.285,2.793ZM12.279,16.371a.82.82,0,0,1,0-1.641h3.274a.82.82,0,1,1,0,1.641Zm0-3.274a.82.82,0,0,1,0-1.641h8.185a.82.82,0,0,1,0,1.641Zm0-3.274a.82.82,0,0,1,0-1.641h8.185a.82.82,0,0,1,0,1.641Z" transform="translate(0 0.005)" fill="#ffc000"/>
</svg>
