<svg id="Layer_1" data-name="Layer 1" xmlns="http://www.w3.org/2000/svg" xmlns:xlink="http://www.w3.org/1999/xlink" viewBox="0 0 200.17 200"><defs><style>.cls-1{fill:url(#radial-gradient);}.cls-2{fill:#fff;}</style><radialGradient id="radial-gradient" cx="100" cy="100" r="100" gradientUnits="userSpaceOnUse"><stop offset="0" stop-color="#f37421"/><stop offset="1" stop-color="#e92128"/></radialGradient></defs><title>nagad bank</title><rect class="cls-1" width="200" height="200" rx="9.18"/><path id="path20" class="cls-2" d="M82.37,133.37H45.46a1.13,1.13,0,0,0-1.14,1.14v2.8a1.14,1.14,0,0,0,1.14,1.15H72.83V153.6a21.52,21.52,0,0,0-2.68-3.18c-3.18-3.31-6.74-5-10.31-5a8.84,8.84,0,0,0-7.25,4.07,12.74,12.74,0,0,0-2.55,7,15.22,15.22,0,0,0,2.17,8.27,10.35,10.35,0,0,0,9,4.46c4.2,0,7.77-2.93,7.77-6.62a5.93,5.93,0,0,0-3.18-5.22l-2-1.14v3.05a3.73,3.73,0,0,1-3.31,2.16,5.29,5.29,0,0,1-3.56-1.4,3.41,3.41,0,0,1-.77-2.41,5.06,5.06,0,0,1,1.15-3.06,3.85,3.85,0,0,1,3.18-1.53c3.69-.12,6.75,1.66,9.29,5.35a16.08,16.08,0,0,1,3.06,9.16l.12,7.64,5.48,3.31c.12.13.38.13.63.13a1.14,1.14,0,0,0,1.15-1.15V138.58h2.16a1.14,1.14,0,0,0,1.15-1.14v-2.8a1.17,1.17,0,0,0-1.15-1.27"/><path id="path22" class="cls-2" d="M155.94,133.37H109.23a1.14,1.14,0,0,0-1.15,1.14v5.22c-4.45-4.71-8.52-7.13-12.22-7.13a12.75,12.75,0,0,0-8.78,2.67c-2.42,1.91-3.82,4.2-3.82,6.88,0,8.14,9.17,8.14,11.46,6.87a2.76,2.76,0,0,1,1.53-.51,2.42,2.42,0,0,1,2.54,2.67c0,1.91-2.67,3.57-6,3.57a4.2,4.2,0,0,1-3.69-1.53l-1.4-2.16-1,2.42a5.45,5.45,0,0,0-.51,2.16,7.27,7.27,0,0,0,2.67,5.22A9,9,0,0,0,94.72,163,9.9,9.9,0,0,0,103,159.2a11.59,11.59,0,0,0,2.29-7.12,8.15,8.15,0,0,0-1.78-4.84c-1.53-2.17-3.31-3.18-5.34-3.18a9.76,9.76,0,0,0-2.55.51,7,7,0,0,1-1.15.25,1.72,1.72,0,0,1-1.27-.64,2.6,2.6,0,0,1-.76-1.78c.13-2,1.91-4.07,5.09-4.07h.13q3.24,0,6.49,3a20.77,20.77,0,0,1,3.94,5v29l5.48,3.18c.12.13.38.13.63.13a1.14,1.14,0,0,0,1.15-1.15V138.58h8.27v25.21l6.62,2.67c.13,0,.25.13.38.13a1.12,1.12,0,0,0,1.15-1v-.26c1.14-7.38,4.32-12.6,9.8-15.65v1.4c0,1,.13,3.82.13,5.34,0,.89.12,1.53.12,2a39.48,39.48,0,0,0,1.4,10.56c1.78,6.24,4.84,7.64,7.13,7.77h.13a4.61,4.61,0,0,0,3.05-1,3.33,3.33,0,0,0,.89-2.42,5.17,5.17,0,0,0-.51-2.67l-.51-.89-1,.25a7.45,7.45,0,0,1-1.66.26h-.25c-.26,0-.38,0-.51-.13-.38-.13-1-.76-1.53-2.8a21.12,21.12,0,0,1-.51-4.58c0-8.15,1.66-14.26,4.33-15.66l.13-.13a1.28,1.28,0,0,0,.63-1c0-.26,0-.39-.12-.51v-.39c-1.28-2.54-3.95-4.32-7.64-5.34l-.26-.13h-.25c-2.93.51-6.36,2.55-10.69,6.11-1.15.89-2.17,1.91-3.18,2.8v-10h25.07a1.14,1.14,0,0,0,1.15-1.15v-2.8a1.14,1.14,0,0,0-1.15-1.14"/><g id="g134"><path id="path72" class="cls-2" d="M139.39,81.69a35.29,35.29,0,0,1-.12,3.56,41.76,41.76,0,0,1-3.69,14.26,41.27,41.27,0,0,1-2.8,5.09,42.74,42.74,0,0,1-36.28,20,44.31,44.31,0,0,1-18.33-4.07,43,43,0,0,1-.76-77.26,35.81,35.81,0,0,0-3.06,4.58c-.12.13-.12.26-.25.38-.51.51-1.15.9-1.66,1.4l-1.9,1.91-.39.39a1.76,1.76,0,0,0-.38.51,3.06,3.06,0,0,0-.63.76,17.84,17.84,0,0,0-1.28,1.65,35.15,35.15,0,0,0-4.45,7.64l-.38.76c-.13.39-.26.64-.39,1,0,.13-.12.38-.12.51-.13.51-.38,1-.51,1.53a2.9,2.9,0,0,0-.26,1c0,.12-.12.38-.12.51-.13.38-.13.63-.26,1a25.22,25.22,0,0,0-.63,3.31c0,.26-.13.51-.13.89a1.12,1.12,0,0,1-.13.64,2.76,2.76,0,0,1-.13,1v2.8a37.37,37.37,0,0,0,59.32,30.42,39.1,39.1,0,0,0,10.94-12.35c.38-.63.64-1.27,1-1.91a35.91,35.91,0,0,0,3.56-14.76V77.62a34.22,34.22,0,0,0-.12-3.57c.12,0,.12.13.12.13a19.28,19.28,0,0,1,1.66,1.53,18.56,18.56,0,0,1,1.65-2.55,34.17,34.17,0,0,1,.77,5,32.79,32.79,0,0,1,.12,3.56"/><path id="path74" class="cls-2" d="M135.19,77.36v1.27a35.17,35.17,0,0,1-3.56,14.77,13.64,13.64,0,0,1-1,1.91,37.71,37.71,0,0,1-10.94,12.34,37.19,37.19,0,0,1-21.9,7.13,36.63,36.63,0,0,1-23.67-8.53,37.37,37.37,0,0,1-13.75-29v-2.8a2.7,2.7,0,0,1,.13-1,1.12,1.12,0,0,1,.13-.64c0-.25.13-.51.13-.89a29.66,29.66,0,0,1,.63-3.31c.13-.38.13-.64.26-1,0-.13.12-.38.12-.51.13-.38.13-.63.26-1s.38-1,.51-1.52c0-.13.12-.39.12-.51.13-.38.26-.64.39-1l.38-.76a34.92,34.92,0,0,1,4.45-7.64,20.48,20.48,0,0,0,1.28-1.66c.25-.25.38-.5.63-.76a1.57,1.57,0,0,0,.38-.51l.39-.38,1.9-1.91A15.82,15.82,0,0,1,74.1,48c-.13.13-.13.25-.26.38s-.12.26-.25.51A43.73,43.73,0,0,0,69.52,64c-.13,1.52-.26,3-.26,4.58,0,19.6,11.46,35.51,25.71,35.51h1.4a23.36,23.36,0,0,0,6-.76A22.69,22.69,0,0,0,119,81.43V80.8A22.45,22.45,0,0,0,112,65a46.45,46.45,0,0,1,8.53,1.14,37.93,37.93,0,0,1,14.12,7.13c.13,0,.13.13.26.13.13,1.52.25,2.67.25,3.94"/><path id="path76" class="cls-2" d="M135.32,77.36v1.27a36.32,36.32,0,0,1-3.56,14.9,15.46,15.46,0,0,1-1,1.91,38.48,38.48,0,0,1-11.07,12.47,37.53,37.53,0,0,1-45.83-1.4A37.68,37.68,0,0,1,74,48.21l.38-.25c-.12.13-.12.25-.25.38s-.13.26-.26.38a37.22,37.22,0,0,0,23.81,65.93,36.91,36.91,0,0,0,21.76-7,37.74,37.74,0,0,0,11-12.34c.38-.64.63-1.27,1-1.91a36.83,36.83,0,0,0,3.56-14.77V77.36a32.59,32.59,0,0,0-.13-3.56v-.13c.13,0,.13.13.26.13l.12.13a30.26,30.26,0,0,1,.13,3.43"/><path id="path78" class="cls-2" d="M125.14,54.07S94.59,48.34,80.21,74.94c0,0,2.54-18.45,24.44-26.73l-4.33-8.14s8.78-7.89,24.18-5.86Z"/><path id="path80" class="cls-2" d="M87.21,68.2S99.43,52.29,127.3,56.36l-.38-9.29a33.76,33.76,0,0,1,21.13,7.76L136.47,72.4s-8-9.29-24.57-9.55A53.48,53.48,0,0,0,87.21,68.2"/><path id="path82" class="cls-2" d="M75.12,82.71s-14-30.42,18.45-50l7.77,14.25a36.51,36.51,0,0,0-10.82,6.62c-6.11,5.22-12.73,14.13-15.4,29.15"/><g id="g132"><path id="path84" class="cls-2" d="M93.57,74.43s-2.67.64-2.54-.76c0-.51.25-.64.51-.51,0-.25-.51-.89.63-1.27a10.81,10.81,0,0,0,.89-1.27c.13-.39.39-.77,1.4-.64a5,5,0,0,1,2.3,1.53c.63,0,1.27.12,1,.25s-.38.38-.25.38.38.26-.64.26c0,.25.26.25.38.38a.17.17,0,0,1,0,.25s.13.51-.38.39-.51-.39-.76-.39-.51.13-.51.26.64.51-.13.64c-.12.12.26.25,0,.38a12.33,12.33,0,0,1-1.91,1.14c-.51,0-.63-.12-.63-.38s.25-.38.63-.38c.13-.13.13-.26,0-.26"/><path id="path86" class="cls-2" d="M93.32,77.23c-.26,0-1-.5-.64-.76a28.66,28.66,0,0,1,2.55-1.53c.38-.12.89.39.38.77a23.19,23.19,0,0,1-2.29,1.52"/><path id="path88" class="cls-2" d="M96.12,76c0-.25.25-1.4.25-1.65s.89-.26.64.63-.89,1.28-.89,1"/><path id="path90" class="cls-2" d="M97.26,73.93s4.84-.26,5.22,0A6.93,6.93,0,0,1,104.14,79c-.38,2.29-1.15,2.92-4.2,3.18A8.36,8.36,0,0,0,99.43,79c-.26-.51-1.4-1.66-1.91-1.66,0,.51-.13,2.17-.13,2.17s-1.53.12-1.78-.26V76.85a17.94,17.94,0,0,0,1.53-1.52c.25.12.25.89,2,.76.13-.26-1.91,0-1.91-2.16"/><path id="path92" class="cls-2" d="M95.48,76.09S94,77.36,93.57,77.62c-.12.38-.38,1.78,1.66,1.78.13-.89.25-3.31.25-3.31"/><path id="path94" class="cls-2" d="M91.79,78c-.51,0-.89-.13-.76-.51s.76-.76,1.14-.64,1.15.26,1.15,1.91a3.88,3.88,0,0,0,2.42,1.15c1.14.12,1.91-.13,1.91.25v2.29s-1.4,0-5-2.54a2,2,0,0,1-.51-1.28c0-.25-.25-.63-.38-.63"/><path id="path96" class="cls-2" d="M90.65,78.25c-.64,0-2.3,1.4-1,2a2.63,2.63,0,0,0,.63-.64s-.25.77.39,1,.38-.38.76-.38c.25.38.25.51.64.51s.38-1,0-1.53a1.91,1.91,0,0,0-1.4-1"/><path id="path98" class="cls-2" d="M97.9,78.51V83s1.53-.51,1.66-.89c0-.76-.26-3.56-1.66-3.56"/><path id="path100" class="cls-2" d="M94.34,81.43s1.78,1.15,2.8,1.66c-.13.25-.89,1.15-1.15,1.15a7,7,0,0,1-1.65-2.81"/><path id="polygon102" class="cls-2" d="M85.81,83.09H88.1V84H85.94Z"/><path id="polygon104" class="cls-2" d="M111.9,82.71H101.85L103.5,84h8.4Z"/><path id="path106" class="cls-2" d="M99.94,82.58c.12-.13,1.27.76,1,.89s-3.44,1.53-3.7,1.4-.25-.89.13-1a7.6,7.6,0,0,0,2.55-1.27"/><path id="path108" class="cls-2" d="M96.5,84.74c-.38-.25-2.42,1.79-1.53,1.91a21.39,21.39,0,0,1,3.57.77c.51-.26,1-.64.89-.89.38,0,.89.51,1.4.38a21.4,21.4,0,0,0,3-2.29,5.11,5.11,0,0,0-2-1c-.39,0-3.69,1.91-5.35,1.14"/><path id="path110" class="cls-2" d="M95.48,87.16c.26,0,2.8,1,3.44.89s.76-.76,1.14-.76.51.38,1.15,0a13.72,13.72,0,0,0,1.91-1.53c0,.38,0,1.53-2.29,2.55s-7.77,2.54-7.89,3.31c.25.12.89-.13,1.4-.38A2.52,2.52,0,0,1,95,93.4c-.12,1.14-1,3.18-1,3.69v3.31c0,.25.5,1.65-.26,1.53a6.7,6.7,0,0,0-1.4-.13c-.25,0-.76.51-1.27.38s-1.28-.25-1.28-.51.51-.25,1-.38.77-.64,1.66-1c0-.63-.26-5-.26-5.85s-.25-2.8.13-3.57c.13-.76,2.16-3.69,3.18-3.69"/><path id="path112" class="cls-2" d="M98.79,89.84c0,.25,1.53,4.2,2.29,4.32s7.13-1.27,8.4-.89c.39.51,1.15,1.4,1.15,2a5,5,0,0,1,0,1.4,1,1,0,0,0,.89-.51c.13-.38,0-2,.13-2.42s.76-1.91-.26-1.78a33.39,33.39,0,0,1-5.09-.26c-1-.25-3.18-.63-3.69-.38a2.84,2.84,0,0,0-1.15,1.4c-.25,0-.25-.12-.12-.89a10.47,10.47,0,0,0,.89-3.69c-.77,0-3.44,1.66-3.44,1.66"/><path id="path114" class="cls-2" d="M95.1,83.6c.13.13.13.51.38.64l-5.22-.39s-.63-.38-.38-.51Z"/><path id="path116" class="cls-2" d="M89.37,83.09h5.22a7.54,7.54,0,0,1-.51-1c-.89,0-4.83.13-4.83.13s-.51,0-.51,1c-.13.25.38.63.63-.13"/><path id="path118" class="cls-2" d="M84.41,84h1s.38-.13,0-.51-1-.64-.51-1.4c-.51-.13-1.27-.25-1.15,1.4h-.51s-.12-.89-1.4-.89a18.84,18.84,0,0,0-4.2,1.27,32.57,32.57,0,0,0,4.2.89,1.83,1.83,0,0,0,1.4-.76h.39a2.1,2.1,0,0,0,.38.89v1a.59.59,0,0,0-.38.76c.12.51.5.51.5.51a2.83,2.83,0,0,1,.64-.12.79.79,0,0,0-.38-1.15v-.76s.38-.26.38-.51-.38-.26-.38-.64"/><path id="path120" class="cls-2" d="M90.65,89.07a1.39,1.39,0,0,0,.5-.76V85.25c0-.76-1.27-1.27-1.4-1.27h-.12a1.44,1.44,0,0,1-.77.38A1,1,0,0,1,88,84c-1,0-1.52,1.27-1.65,1.27a20.11,20.11,0,0,0,0,2.8,2,2,0,0,0,.51.77c-.26.76-1.28,4.83.12,5.34v.64h3.57V94c1.27-.51.38-4,.13-5m-4-3.82c.13-.12.51-1.14,1.27-1.14a1.17,1.17,0,0,0,1,.38,1.86,1.86,0,0,0,.89-.38c.38.13,1.15.51,1.15,1v3.05a.69.69,0,0,1-.38.51H90V87.42H87.59v1.27h-.51a1.07,1.07,0,0,1-.38-.64,9.68,9.68,0,0,1,0-2.8m2.42,8.4h-.64a.26.26,0,0,1-.25-.25.27.27,0,0,1,.25-.26h.64a.27.27,0,0,1,.25.26.26.26,0,0,1-.25.25m1.27.26L88.74,92l-1.53,1.91c-1-.38-.38-3.57,0-5h3.31c.25,1.4.89,4.46-.13,5"/><path id="path122" class="cls-2" d="M89.88,90.34a.63.63,0,0,0-.13-.89h-2c-.64,0-.38.89-.38.89l1.27,1.15a4.08,4.08,0,0,0,1.27-1.15"/><path id="path124" class="cls-2" d="M89.12,91.62l1.27,1.52s-.13-1.78-.13-2.29c-.38,0-1.14.77-1.14.77"/><path id="path126" class="cls-2" d="M87.21,90.85c0,.64-.13,2.29-.13,2.29l1.27-1.52s-.76-.77-1.14-.77"/><path id="path128" class="cls-2" d="M89.63,87h.25v-.26a.27.27,0,0,0-.25-.25H87.72a.27.27,0,0,0-.26.25V87h2.17Z"/><path id="path130" class="cls-2" d="M86.83,95.05h-.26v.26a.27.27,0,0,0,.26.25h3.69a.26.26,0,0,0,.25-.25v-.26H86.83Z"/></g></g></svg>